<svg width="18" height="22" viewBox="0 0 18 22" fill="none" xmlns="http://www.w3.org/2000/svg">
<path fill-rule="evenodd" clip-rule="evenodd" d="M8.75 1.5C4.74594 1.5 1.5 4.74594 1.5 8.75C1.5 11.1517 2.8171 12.9669 4.54101 14.7624C4.95383 15.1924 5.38182 15.6133 5.81591 16.0402L5.86576 16.0892C6.31393 16.5301 6.7682 16.9778 7.2003 17.4332C7.75711 18.02 8.29255 18.635 8.75 19.2936C9.20746 18.635 9.74289 18.02 10.2997 17.4332C10.7318 16.9778 11.1861 16.5301 11.6342 16.0892L11.6841 16.0402C12.1182 15.6133 12.5462 15.1924 12.959 14.7624C14.6829 12.9669 16 11.1517 16 8.75C16 4.74594 12.7541 1.5 8.75 1.5ZM0 8.75C0 3.91751 3.91751 0 8.75 0C13.5825 0 17.5 3.91751 17.5 8.75C17.5 11.7666 15.8171 13.9514 14.041 15.8013C13.6129 16.2472 13.1711 16.6816 12.7411 17.1045L12.6861 17.1587C12.2358 17.6015 11.7994 18.0319 11.3878 18.4657C10.5614 19.3366 9.87131 20.1844 9.42082 21.0854C9.29378 21.3395 9.03408 21.5 8.75 21.5C8.46592 21.5 8.20622 21.3395 8.07918 21.0854C7.62869 20.1844 6.93863 19.3366 6.1122 18.4657C5.70055 18.0319 5.26419 17.6015 4.81393 17.1587L4.75889 17.1045C4.32889 16.6817 3.88709 16.2472 3.45899 15.8013C1.6829 13.9514 0 11.7666 0 8.75ZM8.75 6C7.50736 6 6.5 7.00736 6.5 8.25C6.5 9.49264 7.50736 10.5 8.75 10.5C9.99264 10.5 11 9.49264 11 8.25C11 7.00736 9.99264 6 8.75 6ZM5 8.25C5 6.17893 6.67893 4.5 8.75 4.5C10.8211 4.5 12.5 6.17893 12.5 8.25C12.5 10.3211 10.8211 12 8.75 12C6.67893 12 5 10.3211 5 8.25Z" fill="black"/>
</svg>
