<svg width="35" height="35" viewBox="0 0 35 35" fill="none" xmlns="http://www.w3.org/2000/svg">
<rect x="2.1875" y="2.1875" width="30.625" height="30.625" rx="15.3125" fill="none"/>
<path d="M13.8015 10.6008C13.8015 11.6229 12.9156 12.4516 11.8226 12.4516C10.7297 12.4516 9.84375 11.6229 9.84375 10.6008C9.84375 9.57863 10.7297 8.75 11.8226 8.75C12.9156 8.75 13.8015 9.57863 13.8015 10.6008Z" fill="#196164"/>
<path d="M10.1144 13.812H13.4971V24.0625H10.1144V13.812Z" fill="#196164"/>
<path d="M18.9433 13.812H15.5606V24.0625H18.9433C18.9433 24.0625 18.9433 20.8355 18.9433 18.8178C18.9433 17.6068 19.3568 16.3904 21.0068 16.3904C22.8714 16.3904 22.8602 17.9753 22.8515 19.2031C22.8401 20.808 22.8673 22.4458 22.8673 24.0625H26.25V18.6525C26.2213 15.1981 25.3212 13.6063 22.3599 13.6063C20.6012 13.6063 19.5111 14.4048 18.9433 15.1271V13.812Z" fill="#196164"/>
</svg>
