<svg width="187" height="59" viewBox="0 0 187 59" fill="none" xmlns="http://www.w3.org/2000/svg">
<g clip-path="url(#clip0_7_2148)">
<g clip-path="url(#clip1_7_2148)">
<mask id="mask0_7_2148" style="mask-type:luminance" maskUnits="userSpaceOnUse" x="0" y="9" width="39" height="41">
<path d="M38.3783 9.5H0V49.5H38.3783V9.5Z" fill="white"/>
</mask>
<g mask="url(#mask0_7_2148)">
<path d="M22.9838 29.5024C22.9812 27.514 23.5279 25.5636 24.5634 23.8662H14.623C13.5449 27.5463 13.5449 31.4584 14.623 35.1386H24.5634C23.5279 33.4411 22.9812 31.4907 22.9838 29.5024Z" fill="#196164"/>
<path d="M19.1892 18.6738C21.0467 18.6733 22.8731 19.1507 24.4928 20.06C26.1125 20.9693 27.4711 22.2799 28.4379 23.866H38.3783C37.1619 19.7191 34.6348 16.0778 31.1755 13.4874C27.7162 10.8971 23.5108 9.49707 19.1892 9.49707C14.8675 9.49707 10.6621 10.8971 7.20282 13.4874C3.74351 16.0778 1.21642 19.7191 0 23.866H9.94042C10.9073 22.2799 12.2658 20.9693 13.8856 20.06C15.5053 19.1507 17.3317 18.6733 19.1892 18.6738ZM19.1892 40.3305C17.3317 40.331 15.5053 39.8537 13.8856 38.9444C12.2658 38.0351 10.9073 36.7244 9.94042 35.1383H0C1.21642 39.2853 3.74351 42.9266 7.20282 45.5169C10.6621 48.1072 14.8675 49.5072 19.1892 49.5072C23.5108 49.5072 27.7162 48.1072 31.1755 45.5169C34.6348 42.9266 37.1619 39.2853 38.3783 35.1383H28.4379C27.4711 36.7244 26.1125 38.0351 24.4928 38.9444C22.8731 39.8537 21.0467 40.331 19.1892 40.3305Z" fill="#196164"/>
</g>
<path d="M50.2744 40.5001V18.6819H59.0102C60.6153 18.6819 61.9541 18.9198 63.0266 19.3957C64.099 19.8715 64.9051 20.5321 65.4449 21.3772C65.9847 22.2153 66.2545 23.1812 66.2545 24.275C66.2545 25.1272 66.0841 25.8765 65.7432 26.5228C65.4023 27.162 64.9335 27.6876 64.3369 28.0995C63.7474 28.5044 63.0727 28.792 62.3128 28.9625V29.1755C63.1437 29.211 63.9214 29.4454 64.6459 29.8787C65.3774 30.3119 65.9704 30.9191 66.425 31.7004C66.8795 32.4745 67.1068 33.3978 67.1068 34.4703C67.1068 35.6279 66.8192 36.6613 66.2439 37.5704C65.6757 38.4724 64.8341 39.1862 63.719 39.7117C62.604 40.2373 61.2297 40.5001 59.5962 40.5001H50.2744ZM54.8874 36.7288H58.648C59.9335 36.7288 60.871 36.4838 61.4605 35.9937C62.05 35.4965 62.3447 34.836 62.3447 34.0122C62.3447 33.4085 62.1991 32.8758 61.9079 32.4142C61.6168 31.9525 61.2013 31.5903 60.6615 31.3275C60.1288 31.0647 59.4932 30.9333 58.7545 30.9333H54.8874V36.7288ZM54.8874 27.8119H58.3071C58.9392 27.8119 59.5003 27.7018 59.9903 27.4816C60.4875 27.2544 60.8781 26.9348 61.1622 26.5228C61.4534 26.1109 61.599 25.6173 61.599 25.042C61.599 24.2537 61.3185 23.618 60.7574 23.135C60.2034 22.6521 59.4151 22.4106 58.3923 22.4106H54.8874V27.8119ZM68.5832 40.5001V24.1365H73.1215V40.5001H68.5832ZM70.863 22.0271C70.1883 22.0271 69.6095 21.8034 69.1265 21.3559C68.6507 20.9014 68.4127 20.3581 68.4127 19.726C68.4127 19.101 68.6507 18.5647 69.1265 18.1173C69.6095 17.6627 70.1883 17.4355 70.863 17.4355C71.5377 17.4355 72.113 17.6627 72.5889 18.1173C73.0718 18.5647 73.3133 19.101 73.3133 19.726C73.3133 20.3581 73.0718 20.9014 72.5889 21.3559C72.113 21.8034 71.5377 22.0271 70.863 22.0271ZM75.2318 40.5001V37.7941L83.2431 27.8758V27.7586H75.5088V24.1365H88.7083V27.0875L81.187 36.7608V36.8779H88.9853V40.5001H75.2318ZM91.1009 18.6819H96.7898L102.799 33.341H103.054L109.063 18.6819H114.752V40.5001H110.277V26.2991H110.096L104.45 40.3936H101.403L95.7564 26.2458H95.5753V40.5001H91.1009V18.6819ZM121.693 40.809C120.649 40.809 119.719 40.6279 118.902 40.2657C118.085 39.8964 117.439 39.3531 116.963 38.6358C116.494 37.9113 116.26 37.0093 116.26 35.9298C116.26 35.0207 116.427 34.2572 116.761 33.6393C117.095 33.0214 117.549 32.5242 118.124 32.1478C118.7 31.7714 119.353 31.4873 120.085 31.2956C120.823 31.1038 121.597 30.9689 122.407 30.8907C123.359 30.7913 124.126 30.699 124.708 30.6137C125.291 30.5214 125.713 30.3865 125.976 30.2089C126.239 30.0313 126.37 29.7686 126.37 29.4206V29.3566C126.37 28.6819 126.157 28.1599 125.731 27.7906C125.312 27.4213 124.715 27.2366 123.941 27.2366C123.124 27.2366 122.475 27.4177 121.992 27.7799C121.509 28.135 121.189 28.5825 121.033 29.1223L116.835 28.7813C117.048 27.787 117.467 26.9277 118.092 26.2032C118.717 25.4717 119.524 24.9106 120.511 24.52C121.505 24.1223 122.656 23.9234 123.963 23.9234C124.872 23.9234 125.742 24.0299 126.573 24.243C127.411 24.4561 128.153 24.7863 128.799 25.2338C129.453 25.6812 129.967 26.2565 130.344 26.9596C130.72 27.6556 130.909 28.4902 130.909 29.4632V40.5001H126.605V38.2309H126.477C126.214 38.7423 125.862 39.1933 125.422 39.5839C124.982 39.9674 124.453 40.2693 123.835 40.4894C123.217 40.7025 122.503 40.809 121.693 40.809ZM122.993 37.6769C123.661 37.6769 124.25 37.5456 124.762 37.2828C125.273 37.0129 125.674 36.6507 125.965 36.1961C126.257 35.7416 126.402 35.2267 126.402 34.6514V32.9149C126.26 33.0072 126.065 33.0924 125.816 33.1706C125.575 33.2416 125.301 33.309 124.996 33.373C124.691 33.4298 124.385 33.4831 124.08 33.5328C123.774 33.5754 123.497 33.6144 123.249 33.65C122.716 33.7281 122.251 33.8524 121.853 34.0228C121.455 34.1933 121.146 34.4241 120.926 34.7153C120.706 34.9994 120.596 35.3545 120.596 35.7806C120.596 36.3985 120.82 36.8708 121.267 37.1975C121.722 37.5171 122.297 37.6769 122.993 37.6769ZM146.605 28.8027L142.45 29.0583C142.379 28.7032 142.226 28.3836 141.992 28.0995C141.757 27.8083 141.448 27.5775 141.065 27.4071C140.688 27.2295 140.237 27.1407 139.712 27.1407C139.009 27.1407 138.416 27.2899 137.933 27.5882C137.45 27.8794 137.208 28.27 137.208 28.76C137.208 29.1507 137.365 29.4809 137.677 29.7508C137.99 30.0207 138.526 30.2373 139.286 30.4007L142.247 30.9973C143.838 31.324 145.024 31.8495 145.806 32.574C146.587 33.2984 146.977 34.2501 146.977 35.4291C146.977 36.5015 146.661 37.4426 146.029 38.2522C145.404 39.0619 144.545 39.694 143.451 40.1485C142.365 40.596 141.111 40.8197 139.69 40.8197C137.524 40.8197 135.798 40.3687 134.513 39.4667C133.235 38.5576 132.485 37.3218 132.265 35.7593L136.729 35.525C136.864 36.1855 137.19 36.6897 137.709 37.0377C138.227 37.3787 138.891 37.5491 139.701 37.5491C140.497 37.5491 141.136 37.3964 141.619 37.091C142.109 36.7785 142.357 36.3772 142.365 35.8872C142.357 35.4752 142.183 35.1379 141.842 34.8751C141.502 34.6052 140.976 34.3992 140.266 34.2572L137.432 33.6926C135.834 33.373 134.644 32.819 133.863 32.0306C133.089 31.2423 132.702 30.2373 132.702 29.0157C132.702 27.9646 132.986 27.059 133.554 26.2991C134.129 25.5392 134.936 24.9532 135.972 24.5413C137.016 24.1294 138.238 23.9234 139.637 23.9234C141.704 23.9234 143.33 24.3602 144.516 25.2338C145.71 26.1073 146.406 27.297 146.605 28.8027ZM157.099 24.1365V27.5456H147.245V24.1365H157.099ZM149.482 20.216H154.02V35.4717C154.02 35.8907 154.084 36.2174 154.212 36.4518C154.34 36.6791 154.517 36.8389 154.745 36.9312C154.979 37.0235 155.249 37.0697 155.554 37.0697C155.767 37.0697 155.98 37.0519 156.193 37.0164C156.407 36.9738 156.57 36.9419 156.684 36.9206L157.397 40.2977C157.17 40.3687 156.85 40.4504 156.439 40.5427C156.027 40.6421 155.526 40.7025 154.936 40.7238C153.843 40.7664 152.884 40.6208 152.06 40.287C151.243 39.9532 150.608 39.4348 150.153 38.7316C149.698 38.0285 149.475 37.1407 149.482 36.0683V20.216ZM165.897 40.8197C164.214 40.8197 162.765 40.4788 161.55 39.797C160.343 39.1081 159.413 38.135 158.759 36.8779C158.106 35.6137 157.779 34.1187 157.779 32.3929C157.779 30.7096 158.106 29.2323 158.759 27.961C159.413 26.6897 160.332 25.699 161.518 24.9887C162.712 24.2785 164.111 23.9234 165.716 23.9234C166.795 23.9234 167.8 24.0974 168.731 24.4454C169.668 24.7863 170.485 25.3012 171.181 25.9902C171.884 26.6791 172.431 27.5456 172.822 28.5896C173.212 29.6265 173.408 30.841 173.408 32.2331V33.4795H159.59V30.667H169.136C169.136 30.0136 168.994 29.4348 168.709 28.9305C168.425 28.4262 168.031 28.0321 167.527 27.748C167.03 27.4568 166.451 27.3112 165.79 27.3112C165.102 27.3112 164.491 27.471 163.958 27.7906C163.432 28.1031 163.021 28.5257 162.722 29.0583C162.424 29.5839 162.271 30.1698 162.264 30.8162V33.4902C162.264 34.2998 162.413 34.9994 162.712 35.5889C163.017 36.1784 163.447 36.6329 164.001 36.9525C164.555 37.2721 165.212 37.4319 165.972 37.4319C166.476 37.4319 166.937 37.3609 167.356 37.2189C167.776 37.0768 168.134 36.8637 168.432 36.5796C168.731 36.2956 168.958 35.9475 169.114 35.5356L173.312 35.8126C173.099 36.8211 172.662 37.7018 172.001 38.4546C171.348 39.2004 170.503 39.7828 169.466 40.2018C168.436 40.6137 167.246 40.8197 165.897 40.8197ZM174.929 40.5001V24.1365H179.329V26.9916H179.5C179.798 25.976 180.299 25.2089 181.002 24.6904C181.705 24.1649 182.514 23.9021 183.431 23.9021C183.658 23.9021 183.903 23.9163 184.166 23.9447C184.429 23.9731 184.659 24.0122 184.858 24.0619V28.0889C184.645 28.025 184.35 27.9681 183.974 27.9184C183.598 27.8687 183.253 27.8439 182.941 27.8439C182.273 27.8439 181.676 27.9894 181.151 28.2806C180.632 28.5647 180.22 28.9625 179.915 29.4738C179.617 29.9852 179.468 30.5747 179.468 31.2423V40.5001H174.929Z" fill="#19352D"/>
</g>
</g>
<defs>
<clipPath id="clip0_7_2148">
<rect width="187" height="58" fill="white" transform="translate(0 0.5)"/>
</clipPath>
<clipPath id="clip1_7_2148">
<rect width="187" height="58" fill="white" transform="translate(0 0.5)"/>
</clipPath>
</defs>
</svg>
