<svg width="20" height="20" viewBox="0 0 20 20" fill="none" xmlns="http://www.w3.org/2000/svg">
<path fill-rule="evenodd" clip-rule="evenodd" d="M8.75 1.5C4.74594 1.5 1.5 4.74594 1.5 8.75C1.5 12.7541 4.74594 16 8.75 16C10.7106 16 12.4895 15.2217 13.7945 13.9573C13.8169 13.9267 13.842 13.8974 13.8697 13.8697C13.8974 13.842 13.9267 13.8169 13.9573 13.7945C15.2217 12.4895 16 10.7106 16 8.75C16 4.74594 12.7541 1.5 8.75 1.5ZM15.4449 14.3842C16.7273 12.862 17.5 10.8962 17.5 8.75C17.5 3.91751 13.5825 0 8.75 0C3.91751 0 0 3.91751 0 8.75C0 13.5825 3.91751 17.5 8.75 17.5C10.8962 17.5 12.862 16.7273 14.3842 15.4449L18.2197 19.2803C18.5126 19.5732 18.9874 19.5732 19.2803 19.2803C19.5732 18.9874 19.5732 18.5126 19.2803 18.2197L15.4449 14.3842Z" fill="white"/>
</svg>
