<svg width="15" height="15" viewBox="0 0 15 15" fill="none" xmlns="http://www.w3.org/2000/svg">
<path d="M3.80625 14.84H0.9V5.49622H3.80625V14.84ZM2.3375 4.24622C1.43125 4.24622 0.68125 3.46497 0.68125 2.52747C0.68125 1.62122 1.43125 0.871216 2.3375 0.871216C3.275 0.871216 4.025 1.62122 4.025 2.52747C4.025 3.46497 3.275 4.24622 2.3375 4.24622ZM14.65 14.84H11.775V10.3087C11.775 9.21497 11.7438 7.83997 10.2438 7.83997C8.74375 7.83997 8.525 8.99622 8.525 10.215V14.84H5.61875V5.49622H8.4V6.77747H8.43125C8.8375 6.05872 9.775 5.27747 11.1813 5.27747C14.1188 5.27747 14.6813 7.21497 14.6813 9.71497V14.84H14.65Z" fill="#19352D"/>
</svg>
