<svg width="17" height="14" viewBox="0 0 17 14" fill="none" xmlns="http://www.w3.org/2000/svg">
<path d="M15.0375 3.58997C15.0375 3.74622 15.0375 3.87122 15.0375 4.02747C15.0375 8.37122 11.7563 13.34 5.725 13.34C3.85 13.34 2.13125 12.8087 0.69375 11.8712C0.94375 11.9025 1.19375 11.9337 1.475 11.9337C3.00625 11.9337 4.4125 11.4025 5.5375 10.5275C4.1 10.4962 2.88125 9.55872 2.475 8.24622C2.69375 8.27747 2.88125 8.30872 3.1 8.30872C3.38125 8.30872 3.69375 8.24622 3.94375 8.18372C2.44375 7.87122 1.31875 6.55872 1.31875 4.96497V4.93372C1.75625 5.18372 2.2875 5.30872 2.81875 5.33997C1.9125 4.74622 1.35 3.74622 1.35 2.62122C1.35 1.99622 1.50625 1.43372 1.7875 0.964966C3.4125 2.93372 5.85 4.24622 8.56875 4.40247C8.50625 4.15247 8.475 3.90247 8.475 3.65247C8.475 1.83997 9.94375 0.371216 11.7563 0.371216C12.6938 0.371216 13.5375 0.746216 14.1625 1.40247C14.8813 1.24622 15.6 0.964966 16.225 0.589966C15.975 1.37122 15.475 1.99622 14.7875 2.40247C15.4438 2.33997 16.1 2.15247 16.6625 1.90247C16.225 2.55872 15.6625 3.12122 15.0375 3.58997Z" fill="#19352D"/>
</svg>
