<svg width="15" height="15" viewBox="0 0 15 15" fill="none" xmlns="http://www.w3.org/2000/svg">
<path d="M7.68125 4.24622C9.65 4.24622 11.275 5.87122 11.275 7.83997C11.275 9.83997 9.65 11.4337 7.68125 11.4337C5.68125 11.4337 4.0875 9.83997 4.0875 7.83997C4.0875 5.87122 5.68125 4.24622 7.68125 4.24622ZM7.68125 10.1837C8.9625 10.1837 9.99375 9.15247 9.99375 7.83997C9.99375 6.55872 8.9625 5.52747 7.68125 5.52747C6.36875 5.52747 5.3375 6.55872 5.3375 7.83997C5.3375 9.15247 6.4 10.1837 7.68125 10.1837ZM12.2438 4.12122C12.2438 4.58997 11.8688 4.96497 11.4 4.96497C10.9313 4.96497 10.5563 4.58997 10.5563 4.12122C10.5563 3.65247 10.9313 3.27747 11.4 3.27747C11.8688 3.27747 12.2438 3.65247 12.2438 4.12122ZM14.6188 4.96497C14.6813 6.12122 14.6813 9.58997 14.6188 10.7462C14.5563 11.8712 14.3063 12.84 13.4938 13.6837C12.6813 14.4962 11.6813 14.7462 10.5563 14.8087C9.4 14.8712 5.93125 14.8712 4.775 14.8087C3.65 14.7462 2.68125 14.4962 1.8375 13.6837C1.025 12.84 0.775 11.8712 0.7125 10.7462C0.65 9.58997 0.65 6.12122 0.7125 4.96497C0.775 3.83997 1.025 2.83997 1.8375 2.02747C2.68125 1.21497 3.65 0.964966 4.775 0.902466C5.93125 0.839966 9.4 0.839966 10.5563 0.902466C11.6813 0.964966 12.6813 1.21497 13.4938 2.02747C14.3063 2.83997 14.5563 3.83997 14.6188 4.96497ZM13.1188 11.965C13.4938 11.0587 13.4 8.87122 13.4 7.83997C13.4 6.83997 13.4938 4.65247 13.1188 3.71497C12.8688 3.12122 12.4 2.62122 11.8063 2.40247C10.8688 2.02747 8.68125 2.12122 7.68125 2.12122C6.65 2.12122 4.4625 2.02747 3.55625 2.40247C2.93125 2.65247 2.4625 3.12122 2.2125 3.71497C1.8375 4.65247 1.93125 6.83997 1.93125 7.83997C1.93125 8.87122 1.8375 11.0587 2.2125 11.965C2.4625 12.59 2.93125 13.0587 3.55625 13.3087C4.4625 13.6837 6.65 13.59 7.68125 13.59C8.68125 13.59 10.8688 13.6837 11.8063 13.3087C12.4 13.0587 12.9 12.59 13.1188 11.965Z" fill="#19352D"/>
</svg>
